PathFileType	4	(X/Y/Z)	Kaydara																																																																																																																									
DataRate	CameraRate	NumFrames	NumMarkers	Units	OrigDataRate	OrigDataStartFrame	OrigNumFrames																																																																																																																					
30	30	7	41	mm	30	134	152																																																																																																																					
Frame#	Time	EMLA_LFHD			EMLA_RFHD			EMLA_LBHD			EMLA_RBHD			EMLA_LFTShould			EMLA_RFTShould			EMLA_LRRShould			EMLA_RRRShould			EMLA_T10			EMLA_STRN			EMLA_TRUN			EMLA_LSHO			EMLA_LUPA			EMLA_LELB			EMLA_LFRM			EMLA_LWRA			EMLA_LWRB			EMLA_LFIN			EMLA_RSHO			EMLA_RUPA			EMLA_RELB			EMLA_RFRM			EMLA_RWRA			EMLA_RWRB			EMLA_RFIN			EMLA_LFWT			EMLA_RFWT			EMLA_LBWT			EMLA_RBWT			EMLA_LTHI			EMLA_LKNE			EMLA_LSHN			EMLA_LANK			EMLA_LHEE			EMLA_LTOE			EMLA_RTHI			EMLA_RKNE			EMLA_RSHN			EMLA_RANK			EMLA_RHEE			EMLA_RTOE		
		X1	Y1	Z1	X2	Y2	Z2	X3	Y3	Z3	X4	Y4	Z4	X5	Y5	Z5	X6	Y6	Z6	X7	Y7	Z7	X8	Y8	Z8	X9	Y9	Z9	X10	Y10	Z10	X11	Y11	Z11	X12	Y12	Z12	X13	Y13	Z13	X14	Y14	Z14	X15	Y15	Z15	X16	Y16	Z16	X17	Y17	Z17	X18	Y18	Z18	X19	Y19	Z19	X20	Y20	Z20	X21	Y21	Z21	X22	Y22	Z22	X23	Y23	Z23	X24	Y24	Z24	X25	Y25	Z25	X26	Y26	Z26	X27	Y27	Z27	X28	Y28	Z28	X29	Y29	Z29	X30	Y30	Z30	X31	Y31	Z31	X32	Y32	Z32	X33	Y33	Z33	X34	Y34	Z34	X35	Y35	Z35	X36	Y36	Z36	X37	Y37	Z37	X38	Y38	Z38	X39	Y39	Z39	X40	Y40	Z40	X41	Y41	Z41
																																																																																																																												
134	4.443	142.78708	1605.63004	1642.43088	-25.60367	1582.20856	1634.00665	168.04909	1581.89285	1496.65314	-25.40726	1557.19193	1483.62534	166.61076	1362.72675	1594.28299	19.35981	1347.17133	1611.67709	147.13078	1407.00592	1449.01474	-4.56637	1393.41736	1466.96548	84.20289	1228.50288	1408.31573	100.14521	1290.35522	1642.27936	103.22691	1187.00226	1662.13715	285.43123	1391.01501	1526.33926	361.24859	1217.84386	1539.66248	396.28571	1080.44724	1574.43634	379.52415	958.974	1651.47034	280.15045	902.56653	1795.80551	325.70118	840.289	1758.62503	322.01893	851.34422	1826.70135	-107.11478	1376.07101	1551.77628	-168.66297	1189.00337	1508.77609	-185.6657	1058.94051	1452.68066	-193.55061	965.85297	1418.08517	-149.32981	773.30368	1469.37744	-191.02385	784.69757	1392.43515	-207.05524	735.47661	1430.43961	218.81672	949.80537	1599.29062	-14.45907	937.36023	1636.37146	142.59983	960.69313	1409.83017	-25.22928	948.60909	1450.0116	196.8178	709.45976	1385.28397	206.4892	497.28874	1388.2225	172.81212	313.76799	1370.02609	157.19684	154.44992	1266.30005	81.89579	91.07094	1197.53639	131.75784	39.52543	1382.30804	-41.89082	643.83331	1569.41605	-60.16531	489.0678	1717.99591	-11.59248	278.52551	1796.00403	-38.51784	98.07598	1770.08911	25.61639	38.64415	1739.95667	-29.98464	76.50708	1926.56967
135	4.477	137.75452	1588.7767	1703.28735	-30.119	1563.07266	1692.31277	165.80175	1564.2009	1558.18481	-27.0383	1536.75644	1542.01553	167.44854	1338.37692	1655.12665	18.44498	1324.67072	1672.44858	145.81519	1389.13345	1509.48105	-5.70311	1374.4931	1527.16461	83.10056	1209.54079	1466.31989	100.08705	1268.47733	1703.23486	103.69723	1165.21881	1722.86514	283.22561	1372.48444	1587.1077	359.37519	1202.61642	1611.745	397.92278	1069.70314	1659.04587	378.52783	955.76027	1746.31912	270.88251	912.99408	1888.35922	320.47085	848.16353	1862.72949	312.20062	868.16154	1928.2869	-108.09838	1355.60013	1611.74286	-168.0599	1169.13025	1565.08942	-185.03065	1041.40831	1504.51324	-194.70015	953.83057	1463.34641	-155.10221	756.9474	1497.5618	-198.16246	775.71625	1422.40692	-214.60058	723.71025	1456.5242	219.45276	933.15407	1655.43961	-11.08754	917.07397	1701.65634	136.29258	942.9837	1469.09195	-30.11807	927.26959	1515.09964	193.75414	705.30655	1431.05423	207.58797	492.48562	1419.33716	174.01875	310.38469	1388.4935	157.39339	158.45649	1274.11728	81.78234	99.83417	1200.94421	131.79067	39.3368	1381.92184	-38.5865	615.62553	1625.59998	-56.55146	466.01185	1784.8056	-11.68969	283.01651	1898.9563	-45.74301	102.62533	1911.44745	17.18656	36.03448	1892.38388	-33.44154	111.06565	2071.3179
136	4.51	132.73191	1574.55994	1764.47418	-34.87383	1547.81738	1751.91208	162.66052	1548.43414	1620.08636	-29.79337	1519.85596	1601.79535	164.27645	1324.24347	1717.27051	15.37983	1309.8233	1734.62662	143.01302	1372.6561	1571.11359	-7.42129	1357.38663	1588.25943	81.99947	1191.67099	1529.81705	97.88664	1253.51852	1766.04721	101.87733	1150.48752	1786.53564	279.75803	1358.38303	1649.21707	355.79571	1190.18417	1680.66727	395.40497	1062.03781	1736.3913	375.80757	954.09515	1831.43387	264.28879	919.65462	1972.94708	317.16583	854.57588	1954.7316	305.83181	880.42603	2018.05634	-110.72035	1339.09225	1670.9671	-169.80608	1153.31215	1621.89026	-185.29623	1026.45226	1561.27594	-195.86193	942.2789	1516.43158	-159.23111	743.54965	1539.34509	-205.54811	767.45544	1467.52411	-220.70141	713.02689	1498.91312	219.68626	917.92084	1715.76508	-9.69977	901.46828	1765.91156	130.97334	929.31961	1531.13998	-34.14455	911.34056	1581.18896	194.84531	699.62265	1483.99872	210.0045	486.97338	1461.97296	175.80624	307.26278	1416.02997	159.38959	166.28389	1288.07709	84.01352	115.56851	1209.05136	131.53429	39.15421	1383.27377	-44.75343	602.61383	1695.05188	-55.77255	458.01376	1861.69037	-10.57914	281.48518	1984.53644	-46.78928	103.6548	2011.66412	14.05211	32.92284	1993.92487	-26.95588	123.67052	2169.97589
137	4.543	127.3524	1564.83902	1826.18668	-40.19999	1537.77069	1812.50198	158.59684	1536.13205	1682.5827	-33.5446	1507.23511	1662.92633	160.15587	1314.60724	1783.77197	10.9855	1298.67249	1799.38309	140.12791	1360.99258	1636.95663	-9.83858	1345.31372	1652.70416	81.00718	1179.64195	1596.48605	93.21259	1243.35892	1832.19452	97.56349	1140.2816	1852.69272	276.20333	1348.97491	1715.83374	351.5871	1180.46074	1748.52509	391.8177	1055.1503	1806.97083	372.0208	950.29549	1906.38016	260.8032	922.08237	2049.8497	313.41402	856.36162	2033.59619	302.62234	884.49585	2095.54337	-113.93181	1326.82465	1733.93387	-172.54341	1142.21916	1681.90491	-187.45865	1015.80742	1620.56641	-197.87298	931.77399	1575.74417	-163.77748	731.7231	1596.6803	-209.38269	758.09967	1525.75699	-225.13288	703.15041	1555.90561	217.51629	905.85426	1783.97491	-12.4828	892.60269	1833.08533	128.89634	917.63481	1599.3364	-36.26047	901.32149	1647.35229	193.07699	692.47505	1546.85562	214.49404	481.90041	1515.65903	180.08854	305.67884	1453.83881	164.40271	179.21705	1311.20331	90.38924	139.85289	1226.58936	131.73625	38.72464	1387.74307	-47.8853	596.93714	1778.53821	-55.92691	459.07368	1946.36414	-4.40455	266.24916	2053.37234	-39.25706	85.17832	2061.91422	21.6988	17.47965	2036.10306	-14.67425	92.07332	2219.47342
138	4.577	121.73065	1559.89487	1888.46512	-45.75666	1533.69324	1873.94348	154.0334	1527.66953	1745.84778	-38.00958	1499.61624	1725.10712	155.15369	1308.93387	1853.86749	5.14303	1291.80115	1866.53534	136.76417	1353.81378	1704.11102	-12.40637	1336.85822	1718.03925	80.44322	1170.85518	1665.77942	87.04802	1238.10356	1901.73889	91.57334	1135.39047	1923.61786	272.03604	1343.56216	1786.16501	347.7692	1174.60854	1817.18521	388.98827	1047.8215	1872.05414	368.10539	943.2502	1972.14615	259.55721	918.9444	2117.99667	308.68122	851.19461	2100.09933	302.07312	879.98116	2162.17285	-118.07051	1318.90335	1798.02628	-176.1314	1134.22546	1746.33301	-191.42918	1007.81914	1685.64026	-201.17239	922.23579	1641.72791	-169.08276	723.20419	1670.87112	-210.92987	747.06802	1594.75708	-228.88176	693.15605	1626.59042	213.248	895.61943	1858.47733	-16.34515	893.45352	1903.22708	129.25468	908.6396	1671.1911	-39.60845	899.25194	1716.79245	189.25156	684.86038	1620.64209	219.72307	475.88867	1584.13086	186.36259	305.15915	1504.38782	169.76053	196.53717	1347.66998	95.41787	170.82905	1261.86798	131.82106	36.90688	1395.40527	-54.70659	599.32568	1854.19693	-58.59468	461.5192	2023.48251	1.39076	258.70502	2115.1123	-34.35693	80.74554	2094.64752	20.30042	24.59744	2054.50104	1.65056	43.74786	2255.20355
139	4.61	116.77401	1563.39554	1950.46967	-50.99796	1538.57941	1935.73776	149.66894	1526.07635	1809.31488	-42.71234	1499.59686	1788.23929	149.56899	1311.86066	1925.47333	-0.06292	1293.25104	1933.7558	136.68585	1357.68188	1777.33063	-14.82878	1338.69705	1786.1171	81.56377	1174.33151	1735.67856	80.86815	1239.64882	1971.29639	84.94906	1137.01248	1993.41415	269.95377	1345.12985	1861.08582	344.82517	1172.79236	1884.03427	385.2718	1043.31947	1931.0025	364.35337	935.61371	2027.15698	260.62183	910.17029	2175.48752	305.29675	840.49934	2153.75534	302.97024	867.87209	2216.65161	-122.17684	1318.1398	1861.64825	-179.22466	1131.49635	1813.7117	-194.77932	1003.72566	1756.61713	-203.16578	915.70885	1716.03958	-173.43908	718.31612	1757.91397	-211.31628	737.8627	1677.94174	-231.63574	686.53214	1711.58096	209.10566	890.81261	1929.10858	-21.90063	903.42392	1969.42551	133.48707	902.92717	1740.73959	-37.11908	906.81824	1780.59662	187.90367	670.47142	1700.49683	228.21247	461.89323	1674.79294	196.0557	302.17434	1575.30594	172.58207	215.18288	1406.0141	93.35281	205.81783	1327.10449	131.07248	37.7642	1411.55212	-62.31009	608.15815	1922.68036	-58.98848	476.9022	2103.74512	3.56497	256.20596	2157.53952	-33.96755	80.61121	2113.86353	17.98108	29.08117	2061.41479	6.45225	28.90512	2265.6279
140	4.643	113.83515	1570.03815	2011.93298	-54.08203	1546.21841	1997.76062	146.69344	1528.10303	1872.03751	-46.00573	1502.69119	1851.38123	146.46148	1316.82526	1992.71072	-3.42471	1299.03442	1998.61206	136.23778	1364.35181	1843.75168	-14.37476	1343.10959	1849.87869	85.50576	1180.14145	1799.82056	77.11445	1245.45219	2037.21863	81.20815	1142.66045	2058.82095	266.93451	1351.99707	1932.45438	342.32914	1178.90709	1948.01941	381.62136	1045.01984	1982.8183	361.78604	930.83572	2071.92261	262.18222	895.52223	2220.70587	303.74289	826.17607	2192.38983	305.22718	849.25797	2256.84296	-123.52065	1323.68958	1922.63092	-179.94301	1136.12938	1882.55569	-197.04849	1005.03654	1830.7962	-204.28368	913.33481	1796.01486	-176.30259	719.42352	1854.94217	-210.95127	732.66617	1773.76633	-233.15928	684.93134	1810.40619	204.41839	893.08395	1994.17984	-27.08082	913.30956	2032.79633	132.92564	904.31061	1803.86856	-38.65825	915.05356	1843.1279	185.77646	649.19075	1784.79507	235.90437	446.74202	1778.56979	202.17676	300.14318	1667.36389	170.68714	240.72601	1487.88864	85.32747	244.807	1425.31418	140.28948	58.52315	1444.94934	-74.04893	618.57677	1982.32834	-67.09591	470.16266	2143.81332	2.53946	250.55487	2181.31699	-31.50137	79.52048	2121.33179	18.48818	31.31564	2062.04025	11.31996	27.57244	2265.62515
